<?xml version="1.0" standalone="no"?>
<!DOCTYPE svg PUBLIC "-//W3C//DTD SVG 20010904//EN"
 "http://www.w3.org/TR/2001/REC-SVG-20010904/DTD/svg10.dtd">
<svg version="1.0" xmlns="http://www.w3.org/2000/svg"
 width="192.000000pt" height="192.000000pt" viewBox="0 0 192.000000 192.000000"
 preserveAspectRatio="xMidYMid meet">

<g transform="translate(0.000000,192.000000) scale(0.100000,-0.100000)"
fill="#000000" stroke="none">
<path d="M853 1830 c-131 -18 -282 -74 -380 -141 -124 -84 -246 -228 -308
-361 -240 -520 71 -1126 634 -1232 460 -87 899 199 1017 664 24 97 25 294 1
393 -80 325 -329 578 -647 656 -101 24 -231 33 -317 21z m182 -349 c17 -9 40
-37 53 -61 32 -61 24 -117 -32 -239 -49 -107 -52 -116 -61 -183 l-5 -47 37 16
c51 21 117 70 178 133 64 66 111 90 174 90 39 0 56 -6 82 -27 63 -53 72 -124
23 -189 -45 -60 -78 -68 -274 -66 -96 1 -181 -1 -188 -6 -20 -13 79 -100 170
-150 103 -56 145 -94 158 -144 42 -153 -131 -252 -236 -136 -32 34 -50 76 -64
143 -28 141 -34 162 -57 208 -13 26 -28 45 -34 42 -22 -14 -62 -115 -80 -200
-24 -121 -44 -168 -85 -204 -44 -39 -88 -47 -142 -26 -69 28 -101 93 -82 165
16 58 52 94 156 156 52 31 115 75 140 97 40 36 44 41 28 50 -11 6 -80 8 -178
4 -178 -6 -217 1 -267 49 -63 60 -60 145 6 203 31 27 43 31 91 31 72 0 102
-17 201 -111 45 -43 105 -90 134 -104 l52 -27 -7 63 c-4 44 -21 94 -57 171
-69 149 -68 219 4 286 46 43 100 47 162 13z"/>
</g>
</svg>
